PathFileType	4	(X/Y/Z)	E:\3-PhD\Data\MocapData\ElaboratedData\009\pre\dynamicElaborations\Run_baseline2\Run_baseline2.trc
DataRate	CameraRate	NumFrames	NumMarkers	Units	OrigDataRate	DataStartFrame
200	200	4	54	mm	200	739
Frame#	Time	FHD			LBHD			RBHD			C7			T10			CLAV			LSHO			LUUPA			LMUPA			LDUPA			LLEP			LMEP			LRAD			LUL			LRFIN			RSHO			RUPA1			RMUPA			RDUPA			RLEP			RMEP			RRAD			RUL			RUFIN			RASI			USACR			LSACR			RSACR			LTHI1			LTHI2			LTHI3			LTHI4			LTIB1			LTIB2			LTIB3			LTIB4			LLMAL			LHEE			LMT1			LMT2			RTHI			RTHI2			RTHI3			RTHI4			RLFC			RTIB1			RTIB2			RTIB3			RTIB4			RLMAL			RHEE			RMT1			RMT2			RMT5		
		X1	Y1	Z1	X2	Y2	Z2	X3	Y3	Z3	X4	Y4	Z4	X5	Y5	Z5	X6	Y6	Z6	X7	Y7	Z7	X8	Y8	Z8	X9	Y9	Z9	X10	Y10	Z10	X11	Y11	Z11	X12	Y12	Z12	X13	Y13	Z13	X14	Y14	Z14	X15	Y15	Z15	X16	Y16	Z16	X17	Y17	Z17	X18	Y18	Z18	X19	Y19	Z19	X20	Y20	Z20	X21	Y21	Z21	X22	Y22	Z22	X23	Y23	Z23	X24	Y24	Z24	X25	Y25	Z25	X26	Y26	Z26	X27	Y27	Z27	X28	Y28	Z28	X29	Y29	Z29	X30	Y30	Z30	X31	Y31	Z31	X32	Y32	Z32	X33	Y33	Z33	X34	Y34	Z34	X35	Y35	Z35	X36	Y36	Z36	X37	Y37	Z37	X38	Y38	Z38	X39	Y39	Z39	X40	Y40	Z40	X41	Y41	Z41	X42	Y42	Z42	X43	Y43	Z43	X44	Y44	Z44	X45	Y45	Z45	X46	Y46	Z46	X47	Y47	Z47	X48	Y48	Z48	X49	Y49	Z49	X50	Y50	Z50	X51	Y51	Z51	X52	Y52	Z52	X53	Y53	Z53	X54	Y54	Z54	

739	3.690000	-692.191738	1467.708084	230.325908	-883.801594	1460.672759	174.512961	-824.793490	1453.098693	284.607967	-922.609914	1347.626432	195.035801	-1152.911102	1080.730106	157.642645	-847.416461	1209.471406	193.500598	-832.137603	1262.872589	56.645280	-943.727296	1193.438182	-89.220771	-946.499206	1145.738845	-86.587945	-989.766639	1158.153524	-125.828454	-1084.843496	1101.106640	-185.170460	-1138.587026	1099.669940	-127.141708	-1042.867236	842.458993	-140.040525	-1095.511084	829.650612	-188.158772	-1007.737089	781.242109	-164.484993	-880.018108	1274.623808	353.731710	-995.436750	1229.090560	476.939696	-989.585285	1185.044736	492.636424	-1040.971144	1208.071821	526.104268	-1122.482408	1133.390659	607.776627	-1160.753235	1098.318804	554.803733	-959.589344	918.322027	616.727251	-1003.143005	908.269519	670.128612	-901.427564	891.078271	665.630249	-1010.247829	911.800486	282.800200	-1200.000830	984.933717	172.057635	-1209.733518	948.151191	152.120372	-1204.507448	960.988062	208.802495	-1009.007863	638.599820	26.174929	-936.131158	593.465627	25.013591	-898.345070	623.297521	30.133391	-925.835507	535.541778	42.971845	-897.747375	327.602784	176.735081	-980.422996	337.373278	148.787163	-952.914171	313.162201	172.797971	-1002.324827	282.149355	235.348802	-1151.694123	248.884414	278.291049	-1222.874311	296.216409	337.638656	-1069.884511	132.815097	361.472525	-1075.366722	127.352626	314.921419	-950.706982	741.248621	410.510234	-890.673338	714.312921	410.152957	-865.608042	723.557867	388.718831	-876.644558	630.042909	427.538680	-810.497820	542.243103	435.798464	-728.538801	341.443728	471.734149	-772.121799	275.357953	547.190624	-731.755055	273.666397	523.341274	-719.527673	219.907855	510.306022	-754.206352	132.755980	584.305128	-825.095286	79.364648	560.236677	-602.677736	73.865660	515.567551	-597.786231	73.277541	555.813039	-632.609244	49.972606	611.872501	
740	3.695000	-666.354663	1462.132288	225.147147	-858.881711	1455.146113	172.516428	-797.994747	1447.580820	281.626851	-897.690941	1342.637139	191.551208	-1129.591033	1077.654178	155.101865	-823.423977	1204.076116	190.415381	-807.926773	1255.936447	52.776659	-920.331122	1179.607156	-91.600243	-924.418031	1132.090696	-84.967333	-966.458668	1142.120209	-126.343011	-1062.705175	1086.234706	-182.777594	-1116.130295	1090.415795	-125.444182	-1040.924030	826.176690	-131.488331	-1093.743412	816.598476	-180.364851	-1011.096219	761.053379	-153.855844	-856.685158	1268.515769	351.289301	-969.202831	1219.070878	475.749035	-963.000373	1174.822012	490.388206	-1013.396664	1196.648866	526.344245	-1092.665266	1119.026419	607.018828	-1131.538188	1084.540866	554.202815	-925.898219	906.737514	607.643348	-967.691446	894.958270	661.892846	-866.079417	879.860643	654.559884	-986.584910	908.288758	280.205766	-1176.856360	981.957945	170.257053	-1186.704115	945.053865	150.518009	-1181.093514	958.162416	207.157469	-985.213941	635.911387	21.992311	-911.903162	591.588074	19.477430	-874.324364	621.767628	24.008038	-900.706568	533.731170	37.067516	-871.918364	329.422910	170.062069	-954.634581	340.001918	142.384669	-927.285110	315.817109	166.601247	-976.865267	285.973723	229.671363	-1126.547351	255.564988	273.837097	-1196.872021	303.778914	333.495923	-1045.096793	139.252881	356.858969	-1050.942817	133.556010	310.398091	-928.559177	735.955043	408.581777	-868.932252	708.447532	408.324844	-843.423413	717.761291	387.576502	-855.473300	624.141659	425.424045	-789.999240	535.928392	434.122415	-715.067212	332.818820	470.557703	-762.025480	268.643319	545.270518	-721.417018	265.457609	522.151358	-711.109261	211.401206	509.399821	-749.865455	126.362602	582.989083	-821.174390	73.604585	559.262795	-598.313205	68.599963	516.456600	-593.945854	68.190925	556.790238	-629.230900	45.432688	613.292094	
741	3.700000	-640.851186	1456.743373	219.338304	-834.292816	1449.575976	170.200089	-771.385791	1442.079443	278.195635	-873.014257	1337.604258	187.776643	-1106.367392	1074.329032	152.690097	-799.533750	1198.654130	187.045448	-784.066606	1248.931383	48.618140	-897.630745	1165.815985	-93.821531	-902.812450	1118.779883	-83.566735	-943.856076	1126.236958	-126.602395	-1041.019987	1071.288079	-180.169467	-1093.989299	1080.759487	-123.863117	-1038.670472	811.582087	-123.093593	-1091.287039	805.094906	-172.878782	-1014.239566	743.202042	-143.415043	-833.246381	1262.351686	348.658367	-942.734998	1208.575634	474.417664	-935.948882	1164.158464	487.882823	-985.371590	1184.441595	526.105821	-1062.123816	1103.874823	605.730563	-1101.598987	1069.977673	553.183567	-891.560331	894.887723	597.966889	-931.609011	881.284206	653.057851	-830.198332	868.487401	642.938887	-962.992443	904.490033	277.627266	-1153.737351	978.708669	168.698091	-1163.722786	941.682223	149.199894	-1157.667482	955.083490	205.796170	-961.241720	633.052535	17.767465	-887.437963	589.713947	13.798807	-850.149903	620.347342	17.786197	-875.221037	531.957515	31.023608	-845.165032	331.301032	163.136825	-927.977608	342.402835	135.859443	-900.658079	318.343964	160.250404	-950.176624	289.397106	223.942268	-1099.921022	261.284826	269.590263	-1169.364702	310.043656	329.863535	-1018.208754	144.917565	352.088344	-1024.581577	139.048259	305.698283	-906.716437	730.284796	406.925845	-847.513923	702.158846	406.948528	-821.510950	711.538213	387.010001	-834.716815	617.772376	423.482052	-769.847003	529.241007	432.612253	-702.763956	323.862671	469.498603	-753.436134	262.025609	543.468958	-712.662074	257.101273	521.106220	-704.536280	202.732082	508.670128	-747.701292	120.207085	581.926155	-819.359116	67.787474	558.879890	-596.153958	64.435818	517.346040	-592.201046	64.235519	557.757963	-627.641367	41.876492	614.772583	
742	3.705000	-615.681188	1451.553592	212.902073	-810.012604	1444.004706	167.533788	-744.972354	1436.640857	274.290732	-848.570494	1332.583885	183.727901	-1083.258707	1070.802884	150.359821	-775.758570	1193.228127	183.389391	-760.506879	1241.875442	44.191208	-875.541560	1152.323837	-95.877073	-881.588320	1106.001950	-82.433106	-921.905130	1110.836301	-126.613219	-1019.802119	1056.536705	-177.350356	-1072.214016	1070.885210	-122.285530	-1035.880106	798.658269	-114.979678	-1087.981056	795.082960	-165.776556	-1016.837200	727.633479	-133.352018	-809.660833	1256.171306	345.831961	-915.994310	1197.698459	472.841602	-908.382312	1153.166724	485.056007	-956.873990	1171.549160	525.189532	-1030.823986	1088.052638	603.768189	-1070.908875	1054.745221	551.616880	-856.601706	882.923935	587.681448	-894.927030	867.375156	643.546034	-793.831778	857.100748	630.785574	-939.538303	900.466169	275.049274	-1130.680133	975.213373	167.276451	-1140.820047	938.064336	148.064869	-1134.283936	951.784643	204.615161	-937.155362	630.114935	13.470820	-862.809982	587.928282	7.954764	-825.896462	619.113647	11.439698	-849.460890	530.310883	24.812176	-817.561646	333.262725	155.954469	-900.532251	344.617953	129.233087	-873.106454	320.767354	153.744495	-922.322293	292.408950	218.165589	-1071.865378	265.982050	265.556745	-1140.422075	314.950065	326.733017	-989.274586	149.739526	347.160036	-996.312317	143.755192	300.815420	-885.278138	724.339673	405.547888	-826.507017	695.549127	406.041676	-799.978370	704.957918	387.001099	-814.476147	611.032702	421.733845	-750.093029	522.319121	431.289072	-691.434055	314.894336	468.589321	-746.006856	255.771388	541.835782	-705.164776	248.936787	520.230033	-699.396461	194.266718	508.122036	-747.098210	114.574451	581.108319	-819.071505	62.245789	558.981266	-595.631798	61.388353	518.160552	-591.975140	61.396996	558.634415	-627.305594	39.284616	616.174646	
